HIERARCHY
ROOT SpineBase
{
  OFFSET 0.000000 0.000000 0.000000
  CHANNELS 6 Xposition Yposition Zposition Zrotation Xrotation Yrotation
  JOINT SpineMid
  {
    OFFSET 0.000000 31.930209 0.000000
    CHANNELS 3 Zrotation Xrotation Yrotation
    JOINT SpineShoulder
    {
      OFFSET -0.095706 23.515896 -0.935421
      CHANNELS 3 Zrotation Xrotation Yrotation
      JOINT Neck
      {
        OFFSET -0.046735 7.813030 -0.570322
        CHANNELS 3 Zrotation Xrotation Yrotation
        JOINT Head
        {
          OFFSET -4.537286 13.227676 0.839646
          CHANNELS 3 Zrotation Xrotation Yrotation
          End Site
          {
            OFFSET 0 0 0
          }
        }
      }
      JOINT ShoulderLeft
      {
        OFFSET -17.274478 -5.451699 6.682504
        CHANNELS 3 Zrotation Xrotation Yrotation
        JOINT ElbowLeft
        {
          OFFSET -5.346491 -26.892738 3.959096
          CHANNELS 3 Zrotation Xrotation Yrotation
          JOINT WristLeft
          {
            OFFSET -5.495073 -22.140210 -1.799685
            CHANNELS 3 Zrotation Xrotation Yrotation
            JOINT HandLeft
            {
              OFFSET -1.909363 -8.788341 -1.419938
              CHANNELS 3 Zrotation Xrotation Yrotation
              JOINT HandTipLeft
              {
                OFFSET -0.157664 -6.790219 -0.334218
                CHANNELS 3 Zrotation Xrotation Yrotation
                End Site
                {
                  OFFSET 0 0 0
                }
              }
              JOINT ThumbLeft
              {
                OFFSET -2.348149 0.444788 -3.932698
                CHANNELS 3 Zrotation Xrotation Yrotation
                End Site
                {
                  OFFSET 0 0 0
                }
              }
            }
          }
        }
      }
      JOINT ShoulderRight
      {
        OFFSET 12.850393 -4.297629 -8.213554
        CHANNELS 3 Zrotation Xrotation Yrotation
        JOINT ElbowRight
        {
          OFFSET 8.599746 -26.542019 -5.032404
          CHANNELS 3 Zrotation Xrotation Yrotation
          JOINT WristRight
          {
            OFFSET 1.084768 -21.897030 -8.784302
            CHANNELS 3 Zrotation Xrotation Yrotation
            JOINT HandRight
            {
              OFFSET -1.370094 -7.611354 -1.729402
              CHANNELS 3 Zrotation Xrotation Yrotation
              JOINT HandTipRight
              {
                OFFSET -0.004189 -6.599092 -0.861655
                CHANNELS 3 Zrotation Xrotation Yrotation
                End Site
                {
                  OFFSET 0 0 0
                }
              }
              JOINT ThumbRight
              {
                OFFSET -4.124400 -1.548207 -0.353601
                CHANNELS 3 Zrotation Xrotation Yrotation
                End Site
                {
                  OFFSET 0 0 0
                }
              }
            }
          }
        }
      }
    }
  }
  JOINT HipLeft
  {
    OFFSET -6.663946 0.077869 -0.978466
    CHANNELS 3 Zrotation Xrotation Yrotation
    JOINT KneeLeft
    {
      OFFSET 0.174710 -38.671462 6.851837
      CHANNELS 3 Zrotation Xrotation Yrotation
      JOINT AnkleLeft
      {
        OFFSET 4.280385 -35.878994 9.090424
        CHANNELS 3 Zrotation Xrotation Yrotation
        JOINT FootLeft
        {
          OFFSET -1.947685 -8.398052 -4.133933
          CHANNELS 3 Zrotation Xrotation Yrotation
          End Site
          {
            OFFSET 0 0 0
          }
        }
      }
    }
  }
  JOINT HipRight
  {
    OFFSET 7.112542 1.626824 -6.047238
    CHANNELS 3 Zrotation Xrotation Yrotation
    JOINT KneeRight
    {
      OFFSET 7.145807 -36.899690 -0.824372
      CHANNELS 3 Zrotation Xrotation Yrotation
      JOINT AnkleRight
      {
        OFFSET 7.902078 -37.459339 7.381645
        CHANNELS 3 Zrotation Xrotation Yrotation
        JOINT FootRight
        {
          OFFSET -0.393319 -8.360322 -5.450061
          CHANNELS 3 Zrotation Xrotation Yrotation
          End Site
          {
            OFFSET 0 0 0
          }
        }
      }
    }
  }
}
MOTION
Frames: 9
Frame Time: 0.033333
-20.941837 83.536735 334.714460 -0.000000 0.000000 20.200040 0.000000 0.000000 -20.200040 -0.000000 0.000000 0.000000 -0.000000 0.000000 0.000000 0.000000 0.000000 0.000000 -0.000000 0.000000 0.000000 -0.000000 0.000000 0.000000 -0.000000 0.000000 0.000000 -0.000000 0.000000 0.000000 0.000000 0.000000 0.000000 0.000000 0.000000 0.000000 -0.000000 0.000000 0.000000 -0.000000 0.000000 0.000000 -0.000000 0.000000 0.000000 -0.000000 0.000000 0.000000 0.000000 0.000000 0.000000 0.000000 0.000000 0.000000 0.000000 0.000000 -20.200040 -0.000000 0.000000 0.000000 -0.000000 0.000000 0.000000 0.000000 0.000000 0.000000 0.000000 0.000000 -20.200040 -0.000000 0.000000 0.000000 -0.000000 0.000000 0.000000 0.000000 0.000000 0.000000
-21.593835 83.503588 334.467514 -0.619159 0.406983 20.805367 0.434253 -0.600348 -20.800893 -0.000000 0.000000 0.000000 -0.000000 0.000000 0.000000 0.000000 0.000000 0.000000 0.777122 0.981727 -0.087659 2.876903 0.985345 -0.715495 -2.875275 -3.657189 1.005607 -0.048869 4.456133 -0.365453 0.000000 0.000000 0.000000 0.000000 0.000000 0.000000 -1.972233 0.429029 0.522909 1.968295 -0.446753 -0.507850 -3.023424 -3.301714 1.196567 0.985382 1.944323 -1.003031 0.000000 0.000000 0.000000 0.000000 0.000000 0.000000 1.240260 -1.071645 -20.626734 -0.920303 0.157066 -0.161137 -0.825116 1.155874 0.145447 0.000000 0.000000 0.000000 1.210112 -1.115609 -20.849420 -0.908386 0.205305 0.061773 -0.000000 0.000000 0.000000 0.000000 0.000000 0.000000
-22.160554 83.475376 334.255591 -1.149103 0.759418 21.344640 0.169441 -0.213794 -21.370338 0.201989 -0.135359 -0.014979 0.343422 -1.291637 -0.206893 0.000000 0.000000 0.000000 2.146489 1.292768 -0.100687 5.246525 1.543852 -1.248529 -5.190310 -6.811269 1.831963 0.201650 8.084873 -0.815597 0.000000 0.000000 0.000000 0.000000 0.000000 0.000000 -2.979828 0.290914 1.007364 3.543954 -1.814828 -0.938751 -4.943759 -5.309104 2.101758 1.652514 4.051426 -1.784285 0.000000 0.000000 0.000000 0.000000 0.000000 0.000000 2.293685 -2.003227 -20.985675 -1.714118 0.281968 -0.298389 -1.627130 2.195775 0.318824 0.000000 0.000000 0.000000 2.241547 -2.091532 -21.398709 -1.699818 0.370845 0.115620 -0.000000 0.000000 0.000000 0.000000 0.000000 0.000000
-22.641992 83.452100 334.078691 -1.589337 1.056977 21.815995 0.217192 -0.279337 -21.847976 0.265947 -0.186365 -0.022317 0.527821 -1.831439 -0.295111 0.000000 0.000000 0.000000 2.992774 1.700219 -0.126070 7.158935 1.746220 -1.601107 -7.083097 -9.465282 2.523893 0.790211 10.851630 -1.361001 0.000000 0.000000 0.000000 0.000000 0.000000 0.000000 -4.115963 0.357351 1.393932 4.938590 -2.656424 -1.305087 -5.913069 -7.362465 2.702137 1.781998 6.175123 -2.274409 0.000000 0.000000 0.000000 0.000000 0.000000 0.000000 3.167267 -2.786210 -21.286582 -2.381732 0.373794 -0.412874 -2.407696 3.122458 0.517187 0.000000 0.000000 0.000000 3.100767 -2.917376 -21.857243 -2.372544 0.496536 0.160078 -0.000000 0.000000 0.000000 0.000000 0.000000 0.000000
-23.038151 83.433759 333.936813 -1.939487 1.299445 22.217961 0.241116 -0.315682 -22.253893 0.305651 -0.226598 -0.029659 0.719981 -2.301262 -0.372420 0.000000 0.000000 0.000000 3.687852 1.950208 -0.131882 8.669267 1.649577 -1.784297 -8.684952 -11.612585 3.099536 1.751572 12.715880 -2.001891 0.000000 0.000000 0.000000 0.000000 0.000000 0.000000 -4.992052 0.375147 1.695998 6.064407 -3.441217 -1.603391 -5.801407 -8.918772 3.052429 1.196855 8.223714 -2.410275 0.000000 0.000000 0.000000 0.000000 0.000000 0.000000 3.866882 -3.413780 -21.537786 -2.923518 0.431813 -0.505526 -3.168318 3.938675 0.737914 0.000000 0.000000 0.000000 3.793232 -3.584745 -22.233141 -2.925221 0.582372 0.193953 -0.226334 0.853310 0.108549 0.000000 0.000000 0.000000
-23.349029 83.420353 333.829959 -2.199265 1.486683 22.549428 0.241686 -0.321940 -22.588146 0.321388 -0.256278 -0.037053 0.919493 -2.701582 -0.438436 0.000000 0.000000 0.000000 4.232094 2.043883 -0.116904 9.828230 1.294860 -1.811935 -10.112763 -13.229053 3.559127 3.107358 13.626001 -2.724045 0.000000 0.000000 0.000000 0.000000 0.000000 0.000000 -5.597513 0.347662 1.911342 6.915318 -4.162349 -1.835129 -4.547756 -9.931283 3.161881 -0.261937 10.126450 -2.133461 0.000000 0.000000 0.000000 0.000000 0.000000 0.000000 4.397292 -3.880575 -21.746153 -3.339836 0.455441 -0.577064 -3.910357 4.647063 0.978680 0.000000 0.000000 0.000000 4.323384 -4.086985 -22.533183 -2.958943 -0.189584 0.119934 -0.743311 1.839750 0.281687 0.000000 0.000000 0.000000
-23.607523 83.420619 333.830268 -2.385746 1.537453 22.823697 0.233131 -0.228436 -22.866743 0.290945 -0.242049 -0.046935 1.186928 -3.123660 -0.512961 0.000000 0.000000 0.000000 4.368984 1.542678 -0.025614 11.341165 1.035088 -1.811953 -11.683845 -14.237405 3.908229 5.796914 11.345468 -3.564757 0.000000 0.000000 0.000000 0.000000 0.000000 0.000000 -5.981338 0.353696 2.100701 7.754378 -5.262681 -2.125216 -1.221291 -10.786675 3.077739 -3.791933 13.330255 -1.077814 0.000000 0.000000 0.000000 0.000000 0.000000 0.000000 4.885836 -4.015783 -21.928254 -3.665399 0.322984 -0.638270 -4.931981 5.056081 1.428391 0.000000 0.000000 0.000000 4.820993 -4.243248 -22.755667 -3.223063 -0.406599 0.098134 -0.975166 2.099958 0.383954 0.000000 0.000000 0.000000
-23.761264 83.416781 333.838245 -2.455819 1.565452 22.981895 0.177493 -0.128476 -23.029334 0.244427 -0.240192 -0.056230 1.442237 -3.426533 -0.567493 0.000000 0.000000 0.000000 4.653011 1.409841 0.016233 12.018463 -0.098923 -1.444046 -13.898260 -14.324466 4.070344 8.890948 10.609852 -4.573132 0.000000 0.000000 0.000000 0.000000 0.000000 0.000000 -6.086010 0.245322 2.162396 8.232720 -5.976349 -2.282940 3.194225 -11.095745 2.632880 -7.938975 14.550260 0.260306 0.000000 0.000000 0.000000 0.000000 0.000000 0.000000 5.140195 -4.045988 -22.036303 -3.847166 0.212506 -0.674119 -6.118131 5.776760 1.911260 0.000000 0.000000 0.000000 5.086903 -4.297421 -22.880320 -3.365821 -0.564380 0.081131 -1.235700 2.322545 0.515941 0.000000 0.000000 0.000000
-23.802437 83.406389 333.804171 -2.443992 1.622085 23.099644 0.112348 -0.080850 -23.149107 0.192207 -0.265257 -0.063552 1.658614 -3.562280 -0.589233 0.000000 0.000000 0.000000 4.889746 1.400271 0.037802 12.016812 -1.673513 -0.856712 -15.553661 -14.001676 4.197684 12.227193 8.120021 -5.503653 0.000000 0.000000 0.000000 0.000000 0.000000 0.000000 -5.802588 0.098118 2.096159 8.153360 -6.325734 -2.282917 7.897033 -9.628022 1.539095 -11.956566 14.261313 1.694935 0.000000 0.000000 0.000000 0.000000 0.000000 0.000000 5.125286 -4.082413 -22.146150 -3.521670 -0.566394 -0.677028 -7.227087 6.638372 2.371340 0.000000 0.000000 0.000000 5.111644 -4.351613 -22.985967 -3.387896 -0.622360 0.077782 -1.445416 2.389800 0.630218 0.000000 0.000000 0.000000
